<svg width="240" height="120" viewBox="0 0 240 120" fill="none" xmlns="http://www.w3.org/2000/svg">
<path d="M240 120C240 88.174 227.357 57.6516 204.853 35.1472C182.348 12.6428 151.826 3.14045e-05 120 2.90017e-05C88.174 2.65989e-05 57.6516 12.6428 35.1472 35.1472C12.6428 57.6516 4.80559e-06 88.174 0 120L120 120H240Z" fill="#CCFF17" fill-opacity="0.2"></path>
<path d="M0 120C0 99.978 5.00983 80.2742 14.5731 62.6837C24.1363 45.0931 37.949 30.1751 54.7528 19.2886C71.5565 8.40205 90.8171 1.89312 110.78 0.354755C130.743 -1.1836 150.773 2.29751 169.047 10.4809L120 120L0 120Z" fill="#CCFF17"></path>
<path d="M201.688 120C201.688 98.335 193.082 77.5573 177.762 62.2378C162.443 46.9183 141.665 38.3119 120 38.3119C98.335 38.3119 77.5573 46.9183 62.2378 62.2378C46.9183 77.5573 38.3119 98.335 38.3119 120L120 120H201.688Z" fill="#242422"></path>
</svg>